<svg version="1.1" xmlns="http://www.w3.org/2000/svg" xmlns:xlink="http://www.w3.org/1999/xlink" width="800" height="800"><defs/><g transform="scale(2,2)"><g id="background-7c42fa6c"><rect fill="white" stroke="none" x="0" y="0" width="400" height="400" class="dcg-svg-background"/></g><g id="background-images-7c42fa6c"/><g id="graphpaper-7c42fa6c"><g id="grid-7c42fa6c"><g><path fill="none" stroke="rgb(0,0,0)" class="dcg-svg-minor-gridline" paint-order="fill stroke markers" d=" M 20.5 0 L 20.5 400" stroke-opacity="0.2" stroke-miterlimit="10" stroke-dasharray=""/><path fill="none" stroke="rgb(0,0,0)" class="dcg-svg-minor-gridline" paint-order="fill stroke markers" d=" M 32.5 0 L 32.5 400" stroke-opacity="0.2" stroke-miterlimit="10" stroke-dasharray=""/><path fill="none" stroke="rgb(0,0,0)" class="dcg-svg-minor-gridline" paint-order="fill stroke markers" d=" M 44.5 0 L 44.5 400" stroke-opacity="0.2" stroke-miterlimit="10" stroke-dasharray=""/><path fill="none" stroke="rgb(0,0,0)" class="dcg-svg-minor-gridline" paint-order="fill stroke markers" d=" M 56.5 0 L 56.5 400" stroke-opacity="0.2" stroke-miterlimit="10" stroke-dasharray=""/><path fill="none" stroke="rgb(0,0,0)" class="dcg-svg-minor-gridline" paint-order="fill stroke markers" d=" M 68.5 0 L 68.5 400" stroke-opacity="0.2" stroke-miterlimit="10" stroke-dasharray=""/><path fill="none" stroke="rgb(0,0,0)" class="dcg-svg-minor-gridline" paint-order="fill stroke markers" d=" M 80.5 0 L 80.5 400" stroke-opacity="0.2" stroke-miterlimit="10" stroke-dasharray=""/><path fill="none" stroke="rgb(0,0,0)" class="dcg-svg-minor-gridline" paint-order="fill stroke markers" d=" M 92.5 0 L 92.5 400" stroke-opacity="0.2" stroke-miterlimit="10" stroke-dasharray=""/><path fill="none" stroke="rgb(0,0,0)" class="dcg-svg-minor-gridline" paint-order="fill stroke markers" d=" M 104.5 0 L 104.5 400" stroke-opacity="0.2" stroke-miterlimit="10" stroke-dasharray=""/><path fill="none" stroke="rgb(0,0,0)" class="dcg-svg-minor-gridline" paint-order="fill stroke markers" d=" M 116.5 0 L 116.5 400" stroke-opacity="0.2" stroke-miterlimit="10" stroke-dasharray=""/><path fill="none" stroke="rgb(0,0,0)" class="dcg-svg-minor-gridline" paint-order="fill stroke markers" d=" M 128.5 0 L 128.5 400" stroke-opacity="0.2" stroke-miterlimit="10" stroke-dasharray=""/><path fill="none" stroke="rgb(0,0,0)" class="dcg-svg-minor-gridline" paint-order="fill stroke markers" d=" M 140.5 0 L 140.5 400" stroke-opacity="0.2" stroke-miterlimit="10" stroke-dasharray=""/><path fill="none" stroke="rgb(0,0,0)" class="dcg-svg-minor-gridline" paint-order="fill stroke markers" d=" M 152.5 0 L 152.5 400" stroke-opacity="0.2" stroke-miterlimit="10" stroke-dasharray=""/><path fill="none" stroke="rgb(0,0,0)" class="dcg-svg-minor-gridline" paint-order="fill stroke markers" d=" M 164.5 0 L 164.5 400" stroke-opacity="0.2" stroke-miterlimit="10" stroke-dasharray=""/><path fill="none" stroke="rgb(0,0,0)" class="dcg-svg-minor-gridline" paint-order="fill stroke markers" d=" M 176.5 0 L 176.5 400" stroke-opacity="0.2" stroke-miterlimit="10" stroke-dasharray=""/><path fill="none" stroke="rgb(0,0,0)" class="dcg-svg-minor-gridline" paint-order="fill stroke markers" d=" M 188.5 0 L 188.5 400" stroke-opacity="0.2" stroke-miterlimit="10" stroke-dasharray=""/><path fill="none" stroke="rgb(0,0,0)" class="dcg-svg-minor-gridline" paint-order="fill stroke markers" d=" M 200.5 0 L 200.5 400" stroke-opacity="0.2" stroke-miterlimit="10" stroke-dasharray=""/><path fill="none" stroke="rgb(0,0,0)" class="dcg-svg-minor-gridline" paint-order="fill stroke markers" d=" M 212.5 0 L 212.5 400" stroke-opacity="0.2" stroke-miterlimit="10" stroke-dasharray=""/><path fill="none" stroke="rgb(0,0,0)" class="dcg-svg-minor-gridline" paint-order="fill stroke markers" d=" M 224.5 0 L 224.5 400" stroke-opacity="0.2" stroke-miterlimit="10" stroke-dasharray=""/><path fill="none" stroke="rgb(0,0,0)" class="dcg-svg-minor-gridline" paint-order="fill stroke markers" d=" M 236.5 0 L 236.5 400" stroke-opacity="0.2" stroke-miterlimit="10" stroke-dasharray=""/><path fill="none" stroke="rgb(0,0,0)" class="dcg-svg-minor-gridline" paint-order="fill stroke markers" d=" M 248.5 0 L 248.5 400" stroke-opacity="0.2" stroke-miterlimit="10" stroke-dasharray=""/><path fill="none" stroke="rgb(0,0,0)" class="dcg-svg-minor-gridline" paint-order="fill stroke markers" d=" M 260.5 0 L 260.5 400" stroke-opacity="0.2" stroke-miterlimit="10" stroke-dasharray=""/><path fill="none" stroke="rgb(0,0,0)" class="dcg-svg-minor-gridline" paint-order="fill stroke markers" d=" M 272.5 0 L 272.5 400" stroke-opacity="0.2" stroke-miterlimit="10" stroke-dasharray=""/><path fill="none" stroke="rgb(0,0,0)" class="dcg-svg-minor-gridline" paint-order="fill stroke markers" d=" M 284.5 0 L 284.5 400" stroke-opacity="0.2" stroke-miterlimit="10" stroke-dasharray=""/><path fill="none" stroke="rgb(0,0,0)" class="dcg-svg-minor-gridline" paint-order="fill stroke markers" d=" M 296.5 0 L 296.5 400" stroke-opacity="0.2" stroke-miterlimit="10" stroke-dasharray=""/><path fill="none" stroke="rgb(0,0,0)" class="dcg-svg-minor-gridline" paint-order="fill stroke markers" d=" M 308.5 0 L 308.5 400" stroke-opacity="0.2" stroke-miterlimit="10" stroke-dasharray=""/><path fill="none" stroke="rgb(0,0,0)" class="dcg-svg-minor-gridline" paint-order="fill stroke markers" d=" M 320.5 0 L 320.5 400" stroke-opacity="0.2" stroke-miterlimit="10" stroke-dasharray=""/><path fill="none" stroke="rgb(0,0,0)" class="dcg-svg-minor-gridline" paint-order="fill stroke markers" d=" M 332.5 0 L 332.5 400" stroke-opacity="0.2" stroke-miterlimit="10" stroke-dasharray=""/><path fill="none" stroke="rgb(0,0,0)" class="dcg-svg-minor-gridline" paint-order="fill stroke markers" d=" M 344.5 0 L 344.5 400" stroke-opacity="0.2" stroke-miterlimit="10" stroke-dasharray=""/><path fill="none" stroke="rgb(0,0,0)" class="dcg-svg-minor-gridline" paint-order="fill stroke markers" d=" M 356.5 0 L 356.5 400" stroke-opacity="0.2" stroke-miterlimit="10" stroke-dasharray=""/><path fill="none" stroke="rgb(0,0,0)" class="dcg-svg-minor-gridline" paint-order="fill stroke markers" d=" M 368.5 0 L 368.5 400" stroke-opacity="0.2" stroke-miterlimit="10" stroke-dasharray=""/><path fill="none" stroke="rgb(0,0,0)" class="dcg-svg-minor-gridline" paint-order="fill stroke markers" d=" M 380.5 0 L 380.5 400" stroke-opacity="0.2" stroke-miterlimit="10" stroke-dasharray=""/><path fill="none" stroke="rgb(0,0,0)" class="dcg-svg-minor-gridline" paint-order="fill stroke markers" d=" M 392.5 0 L 392.5 400" stroke-opacity="0.2" stroke-miterlimit="10" stroke-dasharray=""/><path fill="none" stroke="rgb(0,0,0)" class="dcg-svg-minor-gridline" paint-order="fill stroke markers" d=" M 0 392.5 L 400 392.5" stroke-opacity="0.2" stroke-miterlimit="10" stroke-dasharray=""/><path fill="none" stroke="rgb(0,0,0)" class="dcg-svg-minor-gridline" paint-order="fill stroke markers" d=" M 0 371.5 L 400 371.5" stroke-opacity="0.2" stroke-miterlimit="10" stroke-dasharray=""/><path fill="none" stroke="rgb(0,0,0)" class="dcg-svg-minor-gridline" paint-order="fill stroke markers" d=" M 0 350.5 L 400 350.5" stroke-opacity="0.2" stroke-miterlimit="10" stroke-dasharray=""/><path fill="none" stroke="rgb(0,0,0)" class="dcg-svg-minor-gridline" paint-order="fill stroke markers" d=" M 0 328.5 L 400 328.5" stroke-opacity="0.2" stroke-miterlimit="10" stroke-dasharray=""/><path fill="none" stroke="rgb(0,0,0)" class="dcg-svg-minor-gridline" paint-order="fill stroke markers" d=" M 0 285.5 L 400 285.5" stroke-opacity="0.2" stroke-miterlimit="10" stroke-dasharray=""/><path fill="none" stroke="rgb(0,0,0)" class="dcg-svg-minor-gridline" paint-order="fill stroke markers" d=" M 0 264.5 L 400 264.5" stroke-opacity="0.2" stroke-miterlimit="10" stroke-dasharray=""/><path fill="none" stroke="rgb(0,0,0)" class="dcg-svg-minor-gridline" paint-order="fill stroke markers" d=" M 0 242.5 L 400 242.5" stroke-opacity="0.2" stroke-miterlimit="10" stroke-dasharray=""/><path fill="none" stroke="rgb(0,0,0)" class="dcg-svg-minor-gridline" paint-order="fill stroke markers" d=" M 0 221.5 L 400 221.5" stroke-opacity="0.2" stroke-miterlimit="10" stroke-dasharray=""/><path fill="none" stroke="rgb(0,0,0)" class="dcg-svg-minor-gridline" paint-order="fill stroke markers" d=" M 0 200.5 L 400 200.5" stroke-opacity="0.2" stroke-miterlimit="10" stroke-dasharray=""/><path fill="none" stroke="rgb(0,0,0)" class="dcg-svg-minor-gridline" paint-order="fill stroke markers" d=" M 0 178.5 L 400 178.5" stroke-opacity="0.2" stroke-miterlimit="10" stroke-dasharray=""/><path fill="none" stroke="rgb(0,0,0)" class="dcg-svg-minor-gridline" paint-order="fill stroke markers" d=" M 0 157.5 L 400 157.5" stroke-opacity="0.2" stroke-miterlimit="10" stroke-dasharray=""/><path fill="none" stroke="rgb(0,0,0)" class="dcg-svg-minor-gridline" paint-order="fill stroke markers" d=" M 0 135.5 L 400 135.5" stroke-opacity="0.2" stroke-miterlimit="10" stroke-dasharray=""/><path fill="none" stroke="rgb(0,0,0)" class="dcg-svg-minor-gridline" paint-order="fill stroke markers" d=" M 0 114.5 L 400 114.5" stroke-opacity="0.2" stroke-miterlimit="10" stroke-dasharray=""/><path fill="none" stroke="rgb(0,0,0)" class="dcg-svg-minor-gridline" paint-order="fill stroke markers" d=" M 0 92.5 L 400 92.5" stroke-opacity="0.2" stroke-miterlimit="10" stroke-dasharray=""/><path fill="none" stroke="rgb(0,0,0)" class="dcg-svg-minor-gridline" paint-order="fill stroke markers" d=" M 0 71.5 L 400 71.5" stroke-opacity="0.2" stroke-miterlimit="10" stroke-dasharray=""/><path fill="none" stroke="rgb(0,0,0)" class="dcg-svg-minor-gridline" paint-order="fill stroke markers" d=" M 0 50.5 L 400 50.5" stroke-opacity="0.2" stroke-miterlimit="10" stroke-dasharray=""/><path fill="none" stroke="rgb(0,0,0)" class="dcg-svg-minor-gridline" paint-order="fill stroke markers" d=" M 0 28.5 L 400 28.5" stroke-opacity="0.2" stroke-miterlimit="10" stroke-dasharray=""/><path fill="none" stroke="rgb(0,0,0)" class="dcg-svg-minor-gridline" paint-order="fill stroke markers" d=" M 0 7.5 L 400 7.5" stroke-opacity="0.2" stroke-miterlimit="10" stroke-dasharray=""/><path fill="none" stroke="rgb(0,0,0)" class="dcg-svg-major-gridline" paint-order="fill stroke markers" d=" M 56.5 0 L 56.5 400" stroke-opacity="0.2500000000000001" stroke-miterlimit="10" stroke-dasharray=""/><path fill="none" stroke="rgb(0,0,0)" class="dcg-svg-major-gridline" paint-order="fill stroke markers" d=" M 104.5 0 L 104.5 400" stroke-opacity="0.2500000000000001" stroke-miterlimit="10" stroke-dasharray=""/><path fill="none" stroke="rgb(0,0,0)" class="dcg-svg-major-gridline" paint-order="fill stroke markers" d=" M 152.5 0 L 152.5 400" stroke-opacity="0.2500000000000001" stroke-miterlimit="10" stroke-dasharray=""/><path fill="none" stroke="rgb(0,0,0)" class="dcg-svg-major-gridline" paint-order="fill stroke markers" d=" M 200.5 0 L 200.5 400" stroke-opacity="0.2500000000000001" stroke-miterlimit="10" stroke-dasharray=""/><path fill="none" stroke="rgb(0,0,0)" class="dcg-svg-major-gridline" paint-order="fill stroke markers" d=" M 248.5 0 L 248.5 400" stroke-opacity="0.2500000000000001" stroke-miterlimit="10" stroke-dasharray=""/><path fill="none" stroke="rgb(0,0,0)" class="dcg-svg-major-gridline" paint-order="fill stroke markers" d=" M 296.5 0 L 296.5 400" stroke-opacity="0.2500000000000001" stroke-miterlimit="10" stroke-dasharray=""/><path fill="none" stroke="rgb(0,0,0)" class="dcg-svg-major-gridline" paint-order="fill stroke markers" d=" M 344.5 0 L 344.5 400" stroke-opacity="0.2500000000000001" stroke-miterlimit="10" stroke-dasharray=""/><path fill="none" stroke="rgb(0,0,0)" class="dcg-svg-major-gridline" paint-order="fill stroke markers" d=" M 392.5 0 L 392.5 400" stroke-opacity="0.2500000000000001" stroke-miterlimit="10" stroke-dasharray=""/><path fill="none" stroke="rgb(0,0,0)" class="dcg-svg-major-gridline" paint-order="fill stroke markers" d=" M 0 392.5 L 400 392.5" stroke-opacity="0.2500000000000001" stroke-miterlimit="10" stroke-dasharray=""/><path fill="none" stroke="rgb(0,0,0)" class="dcg-svg-major-gridline" paint-order="fill stroke markers" d=" M 0 221.5 L 400 221.5" stroke-opacity="0.2500000000000001" stroke-miterlimit="10" stroke-dasharray=""/><path fill="none" stroke="rgb(0,0,0)" class="dcg-svg-major-gridline" paint-order="fill stroke markers" d=" M 0 135.5 L 400 135.5" stroke-opacity="0.2500000000000001" stroke-miterlimit="10" stroke-dasharray=""/><path fill="none" stroke="rgb(0,0,0)" class="dcg-svg-major-gridline" paint-order="fill stroke markers" d=" M 0 50.5 L 400 50.5" stroke-opacity="0.2500000000000001" stroke-miterlimit="10" stroke-dasharray=""/></g></g><g id="axis-7c42fa6c"><g id="yaxis-7c42fa6c"><title>spawn frequency (entity / sec)</title><g><path fill="none" stroke="rgb(0,0,0)" class="dcg-svg-axis-line" paint-order="fill stroke markers" d=" M 8 3 L 8 400" stroke-opacity="0.9" stroke-miterlimit="10" stroke-width="1.5" stroke-dasharray=""/><g class="dcg-svg-axis-line"><path fill="rgb(0,0,0)" stroke="rgb(0,0,0)" class="dcg-svg-axis-line" paint-order="stroke fill markers" d=" M 8 1.5 L 11.105828541230249 13.09110991546882 L 4.894171458769753 13.09110991546882 L 8 1.5 L 11.105828541230249 13.09110991546882" stroke-opacity="0.9" stroke-linejoin="round" stroke-miterlimit="10" stroke-width="1.5" stroke-dasharray="" fill-opacity="0.9"/></g></g></g><g id="xaxis-7c42fa6c"><title>time (s)</title><g><path fill="none" stroke="rgb(0,0,0)" class="dcg-svg-axis-line" paint-order="fill stroke markers" d=" M 0 307 L 397 307" stroke-opacity="0.9" stroke-miterlimit="10" stroke-width="1.5" stroke-dasharray=""/><g class="dcg-svg-axis-line"><path fill="rgb(0,0,0)" stroke="rgb(0,0,0)" class="dcg-svg-axis-line" paint-order="stroke fill markers" d=" M 398.5 307 L 386.9088900845312 310.10582854123027 L 386.9088900845312 303.89417145876973 L 398.5 307 L 386.9088900845312 310.10582854123027" stroke-opacity="0.9" stroke-linejoin="round" stroke-miterlimit="10" stroke-width="1.5" stroke-dasharray="" fill-opacity="0.9"/></g></g></g><g><g class="dcg-svg-axis-value"><text fill="none" stroke="#ffffff" font-family="Arial" font-size="14px" font-style="normal" font-weight="normal" text-decoration="normal" x="-0.89306640625" y="322.95085714285716" text-anchor="middle" stroke-miterlimit="2" stroke-width="3" stroke-dasharray="">0</text><text fill="#000000" stroke="none" font-family="Arial" font-size="14px" font-style="normal" font-weight="normal" text-decoration="normal" x="-0.89306640625" y="322.95085714285716" text-anchor="middle">0</text></g><g class="dcg-svg-axis-value"><text fill="none" stroke="#ffffff" font-family="Arial" font-size="14px" font-style="normal" font-weight="normal" text-decoration="normal" x="56" y="322.95085714285716" text-anchor="middle" stroke-miterlimit="2" stroke-width="3" stroke-dasharray="">60</text><text fill="#000000" stroke="none" font-family="Arial" font-size="14px" font-style="normal" font-weight="normal" text-decoration="normal" x="56" y="322.95085714285716" text-anchor="middle">60</text></g><g class="dcg-svg-axis-value"><text fill="none" stroke="#ffffff" font-family="Arial" font-size="14px" font-style="normal" font-weight="normal" text-decoration="normal" x="104" y="322.95085714285716" text-anchor="middle" stroke-miterlimit="2" stroke-width="3" stroke-dasharray="">120</text><text fill="#000000" stroke="none" font-family="Arial" font-size="14px" font-style="normal" font-weight="normal" text-decoration="normal" x="104" y="322.95085714285716" text-anchor="middle">120</text></g><g class="dcg-svg-axis-value"><text fill="none" stroke="#ffffff" font-family="Arial" font-size="14px" font-style="normal" font-weight="normal" text-decoration="normal" x="152" y="322.95085714285716" text-anchor="middle" stroke-miterlimit="2" stroke-width="3" stroke-dasharray="">180</text><text fill="#000000" stroke="none" font-family="Arial" font-size="14px" font-style="normal" font-weight="normal" text-decoration="normal" x="152" y="322.95085714285716" text-anchor="middle">180</text></g><g class="dcg-svg-axis-value"><text fill="none" stroke="#ffffff" font-family="Arial" font-size="14px" font-style="normal" font-weight="normal" text-decoration="normal" x="200" y="322.95085714285716" text-anchor="middle" stroke-miterlimit="2" stroke-width="3" stroke-dasharray="">240</text><text fill="#000000" stroke="none" font-family="Arial" font-size="14px" font-style="normal" font-weight="normal" text-decoration="normal" x="200" y="322.95085714285716" text-anchor="middle">240</text></g><g class="dcg-svg-axis-value"><text fill="none" stroke="#ffffff" font-family="Arial" font-size="14px" font-style="normal" font-weight="normal" text-decoration="normal" x="248" y="322.95085714285716" text-anchor="middle" stroke-miterlimit="2" stroke-width="3" stroke-dasharray="">300</text><text fill="#000000" stroke="none" font-family="Arial" font-size="14px" font-style="normal" font-weight="normal" text-decoration="normal" x="248" y="322.95085714285716" text-anchor="middle">300</text></g><g class="dcg-svg-axis-value"><text fill="none" stroke="#ffffff" font-family="Arial" font-size="14px" font-style="normal" font-weight="normal" text-decoration="normal" x="296" y="322.95085714285716" text-anchor="middle" stroke-miterlimit="2" stroke-width="3" stroke-dasharray="">360</text><text fill="#000000" stroke="none" font-family="Arial" font-size="14px" font-style="normal" font-weight="normal" text-decoration="normal" x="296" y="322.95085714285716" text-anchor="middle">360</text></g><g class="dcg-svg-axis-value"><text fill="none" stroke="#ffffff" font-family="Arial" font-size="14px" font-style="normal" font-weight="normal" text-decoration="normal" x="344" y="322.95085714285716" text-anchor="middle" stroke-miterlimit="2" stroke-width="3" stroke-dasharray="">420</text><text fill="#000000" stroke="none" font-family="Arial" font-size="14px" font-style="normal" font-weight="normal" text-decoration="normal" x="344" y="322.95085714285716" text-anchor="middle">420</text></g><g class="dcg-svg-axis-value dcg-svg-offcenter-axis-value"><text fill="none" stroke="#ffffff" font-family="Arial" font-size="14px" font-style="normal" font-weight="normal" text-decoration="normal" x="385.32080078125" y="322.95085714285716" text-anchor="middle" stroke-miterlimit="2" stroke-width="3" stroke-dasharray="">480</text><text fill="#000000" stroke="none" font-family="Arial" font-size="14px" font-style="normal" font-weight="normal" text-decoration="normal" x="385.32080078125" y="322.95085714285716" text-anchor="middle">480</text></g><g class="dcg-svg-axis-value dcg-svg-offcenter-axis-value"><text fill="none" stroke="#ffffff" font-family="Arial" font-size="14px" font-style="normal" font-weight="normal" text-decoration="normal" x="13.1171875" y="393.808" text-anchor="middle" stroke-miterlimit="2" stroke-width="3" stroke-dasharray="">-10</text><text fill="rgb(150,150,150)" stroke="none" font-family="Arial" font-size="14px" font-style="normal" font-weight="normal" text-decoration="normal" x="13.1171875" y="393.808" text-anchor="middle" fill-opacity="1">-10</text></g><g class="dcg-svg-axis-value"><text fill="none" stroke="#ffffff" font-family="Arial" font-size="14px" font-style="normal" font-weight="normal" text-decoration="normal" x="10.7861328125" y="225.23657142857144" text-anchor="middle" stroke-miterlimit="2" stroke-width="3" stroke-dasharray="">10</text><text fill="rgb(150,150,150)" stroke="none" font-family="Arial" font-size="14px" font-style="normal" font-weight="normal" text-decoration="normal" x="10.7861328125" y="225.23657142857144" text-anchor="middle" fill-opacity="1">10</text></g><g class="dcg-svg-axis-value"><text fill="none" stroke="#ffffff" font-family="Arial" font-size="14px" font-style="normal" font-weight="normal" text-decoration="normal" x="10.7861328125" y="139.52228571428572" text-anchor="middle" stroke-miterlimit="2" stroke-width="3" stroke-dasharray="">20</text><text fill="rgb(150,150,150)" stroke="none" font-family="Arial" font-size="14px" font-style="normal" font-weight="normal" text-decoration="normal" x="10.7861328125" y="139.52228571428572" text-anchor="middle" fill-opacity="1">20</text></g><g class="dcg-svg-axis-value"><text fill="none" stroke="#ffffff" font-family="Arial" font-size="14px" font-style="normal" font-weight="normal" text-decoration="normal" x="10.7861328125" y="53.808" text-anchor="middle" stroke-miterlimit="2" stroke-width="3" stroke-dasharray="">30</text><text fill="rgb(150,150,150)" stroke="none" font-family="Arial" font-size="14px" font-style="normal" font-weight="normal" text-decoration="normal" x="10.7861328125" y="53.808" text-anchor="middle" fill-opacity="1">30</text></g></g><g class="dcg-svg-axis-label"><text fill="none" stroke="#ffffff" font-family="Arial" font-size="17px" font-style="normal" font-weight="normal" text-decoration="normal" x="328.3388671875" y="340.14285714285717" text-anchor="start" stroke-miterlimit="2" stroke-width="3" stroke-dasharray="">time (s)</text><text fill="#000000" stroke="none" font-family="Arial" font-size="17px" font-style="normal" font-weight="normal" text-decoration="normal" x="328.3388671875" y="340.14285714285717" text-anchor="start">time (s)</text></g><g class="dcg-svg-axis-label" transform="translate(37.234375,240.82275390625) rotate(-90,0,0)"><text fill="none" stroke="#ffffff" font-family="Arial" font-size="17px" font-style="normal" font-weight="normal" text-decoration="normal" x="0" y="0" text-anchor="start" stroke-miterlimit="2" stroke-width="3" stroke-dasharray="">spawn frequency (entity / sec)</text><text fill="#000000" stroke="none" font-family="Arial" font-size="17px" font-style="normal" font-weight="normal" text-decoration="normal" x="0" y="0" text-anchor="start">spawn frequency (entity / sec)</text></g></g></g><g id="expressions-7c42fa6c"><g id="sketch-7c42fa6c"><title>Expression 1</title><path fill="#c74440" stroke="none" paint-order="stroke fill markers" d="" fill-opacity="0.4"/><g><path fill="none" stroke="#c74440" class="dcg-svg-curve" paint-order="fill stroke markers" d=" M 0 281.42857142857144 L 0 281.42857142857144 L 8.0078125 281.39141638274555 L 11.328125 266.06852866186404 L 13.0859375 258.8897876117753 L 14.55078125 253.7468349738279 L 15.8203125 250.05293903086977 L 16.89453125 247.55439132402847 L 17.87109375 245.82151357645753 L 18.84765625 244.62654976489395 L 19.62890625 244.06841444564682 L 20.3125 243.87354744533778 L 20.99609375 243.9527958031788 L 21.6796875 244.30406023598553 L 22.4609375 245.03300260110353 L 23.33984375 246.25863449928653 L 24.31640625 248.1010804587232 L 25.390625 250.6720008012539 L 26.66015625 254.36950815491164 L 28.125 259.3832015011541 L 29.98046875 266.58250989420867 L 33.69140625 281.42857142857144 L 53.22265625 281.42857142857144 L 53.7109375 279.30482018971935 L 57.12890625 263.2209430428426 L 59.66796875 251.75237268930846 L 61.328125 245.12373126746502 L 62.79296875 240.12674920576256 L 64.0625 236.58027637627276 L 65.13671875 234.21849690720853 L 66.11328125 232.61711788948855 L 67.08984375 231.55826090480446 L 67.87109375 231.11083791105034 L 68.5546875 231.01318871940853 L 69.23828125 231.18916153329394 L 69.921875 231.63588310702 L 70.703125 232.47138840056186 L 71.6796875 233.98673981453837 L 72.75390625 236.22496110665975 L 73.92578125 239.2918344736321 L 75.29296875 243.5900722979403 L 76.85546875 249.26767246120437 L 79.00390625 257.9518660468448 L 83.59375 276.72063621728677 L 84.9609375 281.42857142857144 L 98.046875 281.40332114924774 L 99.51171875 275.9208737846599 L 101.26953125 268.4407285794118 L 103.90625 256.16013577693906 L 107.32421875 240.3711848740714 L 109.08203125 233.1903384929259 L 110.546875 228.04507022480243 L 111.81640625 224.34882371544336 L 112.890625 221.84808790920994 L 113.8671875 220.11310097754046 L 114.84375 218.91594921474683 L 115.625 218.35603078725123 L 116.30859375 218.15959559202798 L 116.9921875 218.23728145583175 L 117.67578125 218.58700159812582 L 118.45703125 219.31421719092458 L 119.3359375 220.53797661593273 L 120.3125 222.37845812001 L 121.38671875 224.94739557469842 L 122.65625 228.64285156520714 L 124.12109375 233.65464042126757 L 125.9765625 240.8523494770281 L 132.71484375 267.8650109213454 L 134.1796875 272.43757946739055 L 135.44921875 275.6706708860134 L 136.5234375 277.7989515813156 L 137.5 279.207247296975 L 138.37890625 280.02232876918674 L 139.16015625 280.37512499251955 L 139.84375 280.3918244422952 L 140.52734375 280.1342364145707 L 141.30859375 279.50485287981274 L 142.1875 278.37519976253924 L 143.1640625 276.6107249533835 L 144.23828125 274.079416768691 L 145.41015625 270.6637156382185 L 146.77734375 265.91169374499066 L 148.33984375 259.6429998449561 L 150.390625 250.45777636057633 L 156.25 223.61356654913027 L 157.8125 217.6588331090149 L 159.1796875 213.2499685893075 L 160.3515625 210.1706270896296 L 161.42578125 207.97480384958575 L 162.40234375 206.5321262255767 L 163.28125 205.7012989027084 L 164.0625 205.34154919426055 L 164.74609375 205.32067750409777 L 165.4296875 205.5728433412163 L 166.2109375 206.19079751826467 L 167.08984375 207.2958424720706 L 168.06640625 209.0114768009872 L 169.140625 211.4540083175528 L 170.3125 214.7200670430015 L 171.6796875 219.21340944001585 L 173.33984375 225.44216920169742 L 175.87890625 235.91756253351002 L 179.19921875 249.51369098466262 L 180.95703125 255.81929340482964 L 182.32421875 259.98501060044856 L 183.49609375 262.9184751945973 L 184.5703125 265.02113957693575 L 185.546875 266.40455971473057 L 186.42578125 267.19630622588187 L 187.20703125 267.5278656892428 L 187.890625 267.52578297675143 L 188.57421875 267.2493835228898 L 189.35546875 266.59865843890304 L 190.234375 265.4454628758488 L 191.2109375 263.65577398433084 L 192.28515625 261.09835235277205 L 193.45703125 257.65668774845716 L 194.82421875 252.87849010308227 L 196.38671875 246.5863176385654 L 198.4375 237.38222053683768 L 204.19921875 210.96396241510166 L 205.76171875 204.9808735141457 L 207.12890625 200.54148787519168 L 208.30078125 197.43251076801812 L 209.375 195.20732847943935 L 210.3515625 193.73664197470276 L 211.23046875 192.8799228256127 L 212.01171875 192.49690138790595 L 212.6953125 192.45566810139275 L 213.37890625 192.68764412852397 L 214.16015625 193.28294171591128 L 215.0390625 194.3633128315913 L 216.015625 196.05292538730185 L 217.08984375 198.4690161578186 L 218.26171875 201.70943159594208 L 219.62890625 206.17785385378573 L 221.2890625 212.3846608349026 L 223.73046875 222.43422196545396 L 227.24609375 236.83592408850308 L 229.00390625 243.1168226774284 L 230.37109375 247.25714762538468 L 231.54296875 250.16520657764448 L 232.6171875 252.24216464975206 L 233.59375 253.6006472763853 L 234.47265625 254.3690201541881 L 235.25390625 254.67932249590226 L 235.9375 254.65845080573948 L 236.62109375 254.36324343820647 L 237.40234375 253.6911934257741 L 238.28125 252.5144899706208 L 239.2578125 250.69964452920522 L 240.33203125 248.11619490311756 L 241.50390625 244.6486845837147 L 242.87109375 239.8444772949985 L 244.43359375 233.52904740543946 L 246.484375 224.30640253396518 L 252.1484375 198.31514970332353 L 253.80859375 191.95829372870475 L 255.17578125 187.54707507154367 L 256.34765625 184.46544955480215 L 257.421875 182.26736491658997 L 258.3984375 180.82253089468793 L 259.27734375 179.9897109442631 L 260.05859375 179.6281708536166 L 260.7421875 179.60573312984732 L 261.42578125 179.85634657611595 L 262.20703125 180.47255922350348 L 263.0859375 181.57570827870637 L 264.0625 183.28934401983622 L 265.13671875 185.72984590104483 L 266.30859375 188.9939376674975 L 267.67578125 193.4853707400597 L 269.3359375 199.7124522828339 L 271.875 210.18679420137755 L 275.29296875 224.1576250558 L 276.953125 230.09208304922197 L 278.3203125 234.25990857681728 L 279.4921875 237.19548480221235 L 280.56640625 239.30028732801787 L 281.54296875 240.68578280907536 L 282.421875 241.4794753895087 L 283.203125 241.81280537160302 L 283.88671875 241.81228810936614 L 284.5703125 241.53745614996012 L 285.3515625 240.88850890466566 L 286.23046875 239.7372739045511 L 287.20703125 237.94968400222166 L 288.28125 235.39443524096947 L 289.453125 231.95492977519768 L 290.8203125 227.1789071116193 L 292.3828125 220.8886827599817 L 294.43359375 211.68614602385102 L 300.1953125 185.26567410822622 L 301.7578125 179.2804141862282 L 303.125 174.83868820637795 L 304.296875 171.72743653593935 L 305.37109375 169.49999938837664 L 306.34765625 168.02716055147988 L 307.2265625 167.16845084596383 L 308.0078125 166.7836395801427 L 308.69140625 166.7408397458673 L 309.375 166.97126193964303 L 310.15625 167.56481522718056 L 311.03515625 168.64328593326385 L 312.01171875 170.33089322840138 L 313.0859375 172.74494513195978 L 314.2578125 175.98338149000577 L 315.625 180.4498779517226 L 317.28515625 186.65498407153706 L 319.7265625 196.70346242818448 L 323.2421875 211.1067106025941 L 325 217.38967756601318 L 326.3671875 221.53212502823123 L 327.5390625 224.44230576370546 L 328.61328125 226.5214094421332 L 329.58984375 227.8819725373091 L 330.46875 228.65229467349312 L 331.25 228.9643692001896 L 331.93359375 228.94506350121645 L 332.6171875 228.65142330838586 L 333.3984375 227.98114971890647 L 334.27734375 226.80640391339676 L 335.25390625 224.99365263059252 L 336.328125 222.41236871631054 L 337.5 218.94700768499354 L 338.8671875 214.14496149818535 L 340.4296875 207.83146125965936 L 342.48046875 198.61034957297457 L 348.14453125 172.61692191913858 L 349.8046875 166.2577605262389 L 351.171875 161.8441887892127 L 352.34375 158.760279979045 L 353.41796875 156.55993444213487 L 354.39453125 155.1129443317081 L 355.2734375 154.27813190991967 L 356.0546875 153.91480147688804 L 356.73828125 153.89079767750488 L 357.421875 154.13985861952554 L 358.203125 154.75432952142725 L 359.08203125 155.8555823280507 L 360.05859375 157.56721896496376 L 361.1328125 160.00569049750308 L 362.3046875 163.2678143694761 L 363.671875 167.75733684753007 L 365.33203125 173.9827384270284 L 367.87109375 184.4560260159144 L 371.2890625 198.4284561901138 L 372.94921875 204.36486728030738 L 374.31640625 208.5347999544315 L 375.48828125 211.47248696148176 L 376.5625 213.57942700521238 L 377.5390625 214.96699739889644 L 378.41796875 215.76263577954447 L 379.19921875 216.09773613850842 L 379.8828125 216.0987842787873 L 380.56640625 215.8255198378193 L 381.34765625 215.17835054617478 L 382.2265625 214.02907634844402 L 383.203125 212.2435858342866 L 384.27734375 209.69051053619373 L 385.44921875 206.25316502617216 L 386.81640625 201.4793184973587 L 388.37890625 195.1910437937861 L 390.4296875 185.99006968568256 L 396.19140625 159.56739048043084 L 397.75390625 153.57996099284208 L 399.12109375 149.13589573766046 L 400 146.73627187024786" stroke-linecap="round" stroke-linejoin="round" stroke-miterlimit="10" stroke-width="2.5" stroke-dasharray=""/></g></g><g id="sketch-7c42fa6c"><title>Expression 10</title><path fill="#388c46" stroke="none" paint-order="stroke fill markers" d="" fill-opacity="0.4"/><g><path fill="none" stroke="#388c46" class="dcg-svg-curve" paint-order="fill stroke markers" d=" M 0 283.5714285714286 L 0 283.5714285714286 L 400 176.42857142857142" stroke-linecap="round" stroke-linejoin="round" stroke-miterlimit="10" stroke-width="2.5" stroke-dasharray=""/></g></g><g id="sketch-7c42fa6c"><title>base frequency</title><path fill="none" stroke="#c74440" class="dcg-svg-point" paint-order="fill stroke markers" d=" M 7.9 281.3285714285714 L 7.9 281.52857142857147 L 8.1 281.52857142857147 L 8.1 281.3285714285714" stroke-linecap="round" stroke-linejoin="round" stroke-miterlimit="10" stroke-width="7.5" stroke-dasharray=""/></g><g id="sketch-7c42fa6c"><title>medium growth</title><path fill="none" stroke="#388c46" class="dcg-svg-point" paint-order="fill stroke markers" d=" M 199.9 229.9 L 199.9 230.1 L 200.1 230.1 L 200.1 229.9" stroke-linecap="round" stroke-linejoin="round" stroke-miterlimit="10" stroke-width="5.625" stroke-dasharray=""/></g></g><g id="labels-7c42fa6c"><g transform="rotate(0,0,0) translate(8,281.42857142857144)"><g class="dcg-svg-label"><g transform="translate(5,4.571428571428555)"><g><text fill="none" stroke="#FFF" font-family="arial, sans-serif" font-size="15.4px" font-style="normal" font-weight="400" text-decoration="normal" x="0" y="13.4888" text-anchor="start" stroke-linecap="round" stroke-linejoin="round" stroke-miterlimit="2" stroke-width="3" stroke-dasharray="">base frequency</text></g></g><g transform="translate(5,4.571428571428555)"><g><text fill="rgb(199, 68, 64)" stroke="none" font-family="arial, sans-serif" font-size="15.4px" font-style="normal" font-weight="400" text-decoration="normal" x="0" y="13.4888" text-anchor="start">base frequency</text></g></g></g></g><g transform="rotate(0,0,0) translate(200,230)"><g class="dcg-svg-label"><g transform="translate(4,4)"><g><text fill="none" stroke="#FFF" font-family="arial, sans-serif" font-size="15.4px" font-style="normal" font-weight="400" text-decoration="normal" x="0" y="13.4888" text-anchor="start" stroke-linecap="round" stroke-linejoin="round" stroke-miterlimit="2" stroke-width="3" stroke-dasharray="">medium growth</text></g></g><g transform="translate(4,4)"><g><text fill="rgb(56, 140, 70)" stroke="none" font-family="arial, sans-serif" font-size="15.4px" font-style="normal" font-weight="400" text-decoration="normal" x="0" y="13.4888" text-anchor="start">medium growth</text></g></g></g></g></g></g></svg>